<?xml version="1.0" encoding="utf-8"?>
<!-- Generator: Adobe Illustrator 21.0.2, SVG Export Plug-In . SVG Version: 6.00 Build 0)  -->
<svg version="1.1" id="Layer_1" xmlns:sketch="http://www.bohemiancoding.com/sketch/ns"
	 xmlns="http://www.w3.org/2000/svg" xmlns:xlink="http://www.w3.org/1999/xlink" x="0px" y="0px" viewBox="0 0 1477 500"
	 style="enable-background:new 0 0 1477 500;" xml:space="preserve">
<style type="text/css">
	.st0{fill:#FFFFFF;}
</style>
<path id="background" sketch:type="MSShapeGroup" d="M60,0h1357c33.1,0,60,26.9,60,60v380c0,33.1-26.9,60-60,60H60
	c-33.1,0-60-26.9-60-60V60C0,26.9,26.9,0,60,0z"/>
<g id="icon" transform="translate(130.000000, 88.000000)" sketch:type="MSShapeGroup">
	<path id="Fill-2" class="st0" d="M193.3,150.6c-0.3-35.8,29.3-53.2,30.6-54c-16.8-24.4-42.8-27.8-51.9-28.1
		c-21.8-2.3-43,13.1-54.1,13.1c-11.3,0-28.5-12.8-46.9-12.5c-23.7,0.4-46,14.1-58.1,35.5c-25.1,43.5-6.4,107.5,17.7,142.7
		c12.1,17.2,26.1,36.5,44.6,35.8c18-0.7,24.8-11.5,46.5-11.5c21.6,0,27.9,11.5,46.7,11.1c19.4-0.3,31.5-17.3,43.2-34.7
		c13.9-19.7,19.5-39.2,19.7-40.2C230.8,207.6,193.7,193.4,193.3,150.6"/>
	<path id="Fill-3" class="st0" d="M157.8,45.4c9.7-12.1,16.3-28.6,14.5-45.4c-14,0.6-31.6,9.7-41.7,21.6
		c-8.9,10.5-16.9,27.6-14.9,43.7C131.5,66.5,147.7,57.3,157.8,45.4"/>
</g>
<g transform="translate(459.000000, 218.000000)" sketch:type="MSShapeGroup">
	<path id="Fill-4" class="st0" d="M125.5,150.6h-25.2l-13.8-43.4h-48l-13.1,43.4H0.9L48.4,2.9h29.4L125.5,150.6L125.5,150.6z
		 M82.4,89L69.9,50.5c-1.3-4-3.8-13.2-7.4-27.8H62c-1.5,6.3-3.8,15.6-7,27.8L42.7,89H82.4L82.4,89z"/>
	<path id="Fill-5" class="st0" d="M247.6,96.1c0,18.1-4.9,32.4-14.8,42.9c-8.8,9.4-19.8,14-32.8,14c-14.1,0-24.2-5-30.4-15.1v55.9
		h-23.7V79.1c0-11.4-0.3-23-0.9-35h20.8l1.3,16.9h0.4c7.9-12.7,19.9-19.1,35.9-19.1c12.6,0,23,5,31.4,14.9
		C243.4,66.8,247.6,79.8,247.6,96.1L247.6,96.1z M223.5,96.9c0-10.4-2.3-18.9-7-25.6c-5.1-7-12-10.5-20.6-10.5
		c-5.8,0-11.1,2-15.9,5.8c-4.7,3.9-7.9,8.9-9.3,15.2c-0.7,2.9-1.1,5.3-1.1,7.2v17.8c0,7.7,2.4,14.3,7.1,19.6c4.7,5.3,10.9,8,18.5,8
		c8.9,0,15.8-3.5,20.8-10.3C221,117.2,223.5,108.2,223.5,96.9L223.5,96.9z"/>
	<path id="Fill-6" class="st0" d="M370,96.1c0,18.1-4.9,32.4-14.8,42.9c-8.8,9.4-19.8,14-32.8,14c-14.1,0-24.2-5-30.4-15.1v55.9
		h-23.7V79.1c0-11.4-0.3-23-0.9-35h20.8l1.3,16.9h0.4c7.9-12.7,19.9-19.1,35.9-19.1c12.6,0,23,5,31.4,14.9
		C365.8,66.8,370,79.8,370,96.1L370,96.1z M345.9,96.9c0-10.4-2.3-18.9-7-25.6c-5.1-7-12-10.5-20.6-10.5c-5.8,0-11.1,2-15.9,5.8
		c-4.7,3.9-7.8,8.9-9.3,15.2c-0.7,2.9-1.1,5.3-1.1,7.2v17.8c0,7.7,2.4,14.3,7.1,19.6c4.7,5.3,10.9,8,18.5,8
		c8.9,0,15.9-3.5,20.8-10.3C343.5,117.2,345.9,108.2,345.9,96.9L345.9,96.9z"/>
	<path id="Fill-7" class="st0" d="M507,109.2c0,12.6-4.4,22.8-13.1,30.7c-9.6,8.6-23,12.9-40.2,12.9c-15.9,0-28.6-3.1-38.2-9.2
		l5.5-19.7c10.4,6.1,21.8,9.2,34.2,9.2c8.9,0,15.9-2,20.8-6c5-4,7.5-9.4,7.5-16.1c0-6-2.1-11-6.1-15.1c-4.1-4.1-10.9-7.9-20.4-11.4
		C430.9,74.8,418,60.7,418,42.2c0-12.1,4.6-22,13.7-29.8c9.1-7.7,21.2-11.6,36.3-11.6c13.4,0,24.6,2.3,33.5,7L495.5,27
		c-8.4-4.5-17.8-6.8-28.4-6.8c-8.3,0-14.9,2.1-19.6,6.1c-3.9,3.7-5.9,8.1-5.9,13.4c0,5.8,2.3,10.7,6.8,14.4
		c3.9,3.5,11.1,7.3,21.5,11.4c12.7,5.1,22,11.1,28,18C504,90.4,507,99,507,109.2"/>
	<path id="Fill-8" class="st0" d="M585.4,61.9h-26.1v51.7c0,13.1,4.6,19.7,13.8,19.7c4.2,0,7.7-0.4,10.5-1.1l0.7,18
		c-4.7,1.7-10.8,2.6-18.4,2.6c-9.4,0-16.6-2.9-21.9-8.6c-5.3-5.7-7.9-15.3-7.9-28.7V61.8h-15.5V44.1h15.5V24.6l23.2-7v26.5h26.1
		V61.9"/>
	<path id="Fill-9" class="st0" d="M702.8,96.5c0,16.4-4.7,29.8-14,40.3c-9.8,10.8-22.8,16.2-39,16.2c-15.6,0-28.1-5.2-37.4-15.5
		s-13.9-23.4-13.9-39.2c0-16.5,4.8-30,14.3-40.5c9.6-10.5,22.5-15.8,38.7-15.8c15.6,0,28.2,5.2,37.7,15.6
		C698.3,67.6,702.8,80.6,702.8,96.5L702.8,96.5z M678.3,97c0-9.8-2.1-18.1-6.3-25.1c-5-8.5-12.1-12.7-21.3-12.7
		c-9.5,0-16.8,4.2-21.7,12.7c-4.3,7-6.3,15.5-6.3,25.6c0,9.8,2.1,18.2,6.3,25.1c5.1,8.5,12.3,12.7,21.5,12.7c9,0,16.1-4.3,21.3-12.9
		C676.1,115.2,678.3,106.8,678.3,97L678.3,97z"/>
	<path id="Fill-10" class="st0" d="M779.8,64.9c-2.3-0.4-4.8-0.6-7.5-0.6c-8.3,0-14.8,3.1-19.3,9.4c-3.9,5.5-5.9,12.6-5.9,21v55.9
		h-23.7v-73c0-12.3-0.2-23.5-0.7-33.5h20.6l0.9,20.4h0.7c2.5-7,6.4-12.7,11.8-16.9c5.3-3.8,11-5.7,17.1-5.7c2.2,0,4.2,0.2,5.9,0.4
		L779.8,64.9"/>
	<path id="Fill-11" class="st0" d="M885.6,92.3c0,4.2-0.3,7.8-0.9,10.7h-71c0.3,10.5,3.7,18.6,10.3,24.1c6,4.9,13.7,7.4,23.2,7.4
		c10.5,0,20.1-1.7,28.7-5l3.7,16.4c-10.1,4.4-22,6.6-35.7,6.6c-16.5,0-29.5-4.9-38.9-14.6c-9.4-9.7-14.1-22.8-14.1-39.1
		c0-16,4.4-29.4,13.2-40.1c9.2-11.4,21.6-17.1,37.2-17.1c15.3,0,27,5.7,34.8,17.1C882.4,67.9,885.6,79,885.6,92.3L885.6,92.3z
		 M863,86.2c0.2-7-1.4-13.1-4.6-18.2c-4.1-6.6-10.4-9.9-18.8-9.9c-7.7,0-14,3.2-18.8,9.6c-3.9,5.1-6.3,11.3-7,18.4L863,86.2
		L863,86.2z"/>
</g>
<g id="Available-on-the" transform="translate(468.000000, 91.000000)" sketch:type="MSShapeGroup">
	<path id="Fill-12" class="st0" d="M62,77.1H49.6l-6.8-21.3H19.2l-6.5,21.3H0.7L24,4.5h14.4L62,77.1L62,77.1z M40.7,46.8l-6.1-19
		c-0.6-1.9-1.8-6.5-3.7-13.7h-0.2c-0.8,3.1-1.8,7.6-3.5,13.7l-6,19H40.7L40.7,46.8z"/>
	<path id="Fill-13" class="st0" d="M120.4,24.7l-19.8,52.3H89.3L70.1,24.7h12.5l8.9,27.7c1.5,4.6,2.8,9,3.8,13.2h0.3
		c0.9-3.8,2.2-8.2,3.8-13.2l8.8-27.7H120.4"/>
	<path id="Fill-14" class="st0" d="M162.6,77.1l-0.9-6h-0.3c-3.6,4.8-8.7,7.2-15.3,7.2c-9.4,0-16-6.6-16-15.4
		c0-12.9,11.2-19.6,30.6-19.6v-1c0-6.9-3.7-10.3-10.9-10.3c-5.2,0-9.7,1.3-13.7,3.9l-2.4-7.6c4.8-3,10.9-4.5,18-4.5
		c13.7,0,20.6,7.2,20.6,21.7v19.3c0,5.3,0.2,9.4,0.8,12.5L162.6,77.1L162.6,77.1z M161,51c-12.9,0-19.4,3.1-19.4,10.6
		c0,5.5,3.3,8.2,8,8.2c5.9,0,11.4-4.5,11.4-10.7V51L161,51z"/>
	<path id="Fill-15" class="st0" d="M198.2,16.1c-3.9,0-6.9-3-6.9-7s3.1-6.9,7.1-6.9c4,0,7.2,2.9,7.1,6.9
		C205.5,13.3,202.5,16.1,198.2,16.1L198.2,16.1z M192.6,24.7h11.6v52.3h-11.6V24.7z"/>
	<path id="Fill-16" class="st0" d="M224.9,0.7h11.6v76.3h-11.6V0.7z"/>
	<path id="Fill-17" class="st0" d="M285.9,77.1l-0.9-6h-0.3c-3.6,4.8-8.7,7.2-15.3,7.2c-9.4,0-16-6.6-16-15.4
		c0-12.9,11.2-19.6,30.6-19.6v-1c0-6.9-3.7-10.3-10.9-10.3c-5.2,0-9.7,1.3-13.7,3.9l-2.4-7.7c4.8-3,10.9-4.5,18-4.5
		c13.7,0,20.6,7.2,20.6,21.7v19.3c0,5.3,0.2,9.4,0.7,12.5H285.9L285.9,77.1z M284.3,51c-12.9,0-19.4,3.1-19.4,10.6
		c0,5.5,3.3,8.2,8,8.2c5.9,0,11.4-4.5,11.4-10.7V51L284.3,51z"/>
	<path id="Fill-18" class="st0" d="M342.8,78.3c-7.4,0-12.9-3.1-16.5-9.3h-0.2l-0.7,8.1h-9.9c0.3-4.2,0.4-8.9,0.4-14.1V0.7h11.7
		v31.7h0.2c3.5-5.8,9-8.7,16.7-8.7c12.6,0,21.4,10.8,21.4,26.5C365.9,66.4,356.1,78.3,342.8,78.3L342.8,78.3z M340.4,32.8
		c-6.7,0-12.8,5.8-12.8,13.9v9.2c0,7.2,5.5,13.1,12.6,13.1c8.7,0,13.9-7.1,13.9-18.4C354.1,40,348.7,32.8,340.4,32.8L340.4,32.8z"/>
	<path id="Fill-19" class="st0" d="M383.1,0.7h11.6v76.3h-11.6V0.7z"/>
	<path id="Fill-20" class="st0" d="M458,53.7h-34.9c0.2,9.9,6.8,15.5,16.5,15.5c5.2,0,9.9-0.9,14.1-2.5l1.8,8.1
		C450.6,77,444.8,78,438,78c-16.4,0-26.1-10.3-26.1-26.4c0-16,9.9-28.1,24.8-28.1c13.3,0,21.8,9.9,21.8,24.9
		C458.5,50.5,458.4,52.3,458,53.7L458,53.7z M447.4,45.4c0-8.1-4.1-13.8-11.5-13.8c-6.7,0-11.9,5.8-12.7,13.8H447.4L447.4,45.4z"/>
	<path id="Fill-21" class="st0" d="M528.5,78.3c-15.3,0-25.2-11.4-25.2-26.9c0-16.2,10.1-27.7,26.1-27.7c15.1,0,25.2,10.9,25.2,26.8
		C554.6,66.8,544.2,78.3,528.5,78.3L528.5,78.3z M529,32.2c-8.4,0-13.8,7.9-13.8,18.8c0,10.8,5.5,18.6,13.7,18.6
		c8.2,0,13.7-8.4,13.7-18.9C542.5,40.1,537.2,32.2,529,32.2L529,32.2z"/>
	<path id="Fill-22" class="st0" d="M617.1,77.1h-11.6V47c0-9.3-3.6-13.9-10.6-13.9c-6.9,0-11.6,5.9-11.6,12.8v31.1h-11.6V39.7
		c0-4.6-0.1-9.6-0.4-15h10.2l0.5,8.1h0.3c3.1-5.6,9.5-9.2,16.6-9.2c11,0,18.2,8.4,18.2,22.1V77.1"/>
	<path id="Fill-23" class="st0" d="M693.2,33.5h-12.8v25.4c0,6.5,2.3,9.7,6.8,9.7c2,0,3.8-0.2,5.2-0.5l0.3,8.8
		c-2.3,0.9-5.3,1.3-9,1.3c-9.2,0-14.6-5.1-14.6-18.3V33.5h-7.6v-8.7h7.6v-9.6l11.4-3.5v13h12.8V33.5"/>
	<path id="Fill-24" class="st0" d="M754.8,77.1h-11.6V47.2c0-9.4-3.6-14.1-10.6-14.1c-6,0-11.6,4.1-11.6,12.4v31.5h-11.6V0.7H721
		v31.4h0.2c3.7-5.7,8.9-8.5,15.7-8.5c11.1,0,17.9,8.6,17.9,22.3V77.1"/>
	<path id="Fill-25" class="st0" d="M814.2,53.7h-34.9c0.2,9.9,6.8,15.5,16.5,15.5c5.2,0,9.9-0.9,14.1-2.5l1.8,8.1
		C806.8,77,801,78,794.2,78c-16.4,0-26.1-10.3-26.1-26.4c0-16,9.9-28.1,24.8-28.1c13.3,0,21.8,9.9,21.8,24.9
		C814.7,50.5,814.6,52.3,814.2,53.7L814.2,53.7z M803.6,45.4c0-8.1-4.1-13.8-11.5-13.8c-6.7,0-12,5.8-12.7,13.8H803.6L803.6,45.4z"
		/>
</g>
</svg>
