<?xml version="1.0" encoding="iso-8859-1"?>
<!-- Generator: Adobe Illustrator 19.0.0, SVG Export Plug-In . SVG Version: 6.00 Build 0)  -->
<svg version="1.1" id="Capa_1" xmlns="http://www.w3.org/2000/svg" xmlns:xlink="http://www.w3.org/1999/xlink" x="0px" y="0px"
	 viewBox="0 0 512 512" style="enable-background:new 0 0 512 512;" xml:space="preserve">
<g>
	<g>
		<path d="M366,0H146c-30.327,0-55,24.673-55,55v402c0,30.327,24.673,55,55,55h220c30.327,0,55-24.673,55-55V55
			C421,24.673,396.327,0,366,0z M198,30h116v15c0,2.757-2.243,5-5,5H203c-2.757,0-5-2.243-5-5V30z M391,457
			c0,13.785-11.215,25-25,25H146c-13.785,0-25-11.215-25-25V55c0-13.785,11.215-25,25-25h22v15c0,19.299,15.701,35,35,35h106
			c19.299,0,35-15.701,35-35V30h22c13.785,0,25,11.215,25,25V457z"/>
	</g>
</g>
<g>
	<g>
		<path d="M175.875,190.7c1.249-1.699,1.875-3.949,1.875-6.75v-23.1H186v-22.5h-30.3c-0.599,0-1.325,0.3-2.174,0.9
			c-0.851,0.6-1.275,1.8-1.275,3.6v31.35c0,1.401-0.276,2.775-0.825,4.125c-0.551,1.35-1.251,2.55-2.1,3.6
			c-0.851,1.05-1.826,1.9-2.925,2.55c-1.102,0.651-2.151,0.975-3.15,0.975v19.5c2.101,0.501,4.125,1.75,6.075,3.75
			c1.95,2.001,2.925,4.601,2.925,7.8v33c0,1.898,0.425,3.125,1.275,3.675c0.849,0.548,1.575,0.825,2.175,0.825H186v-22.5h-8.25
			v-24.75c0-2.7-0.651-4.924-1.95-6.675c-1.301-1.749-2.699-3.324-4.199-4.725C173.199,193.951,174.624,192.402,175.875,190.7z"/>
	</g>
</g>
<g>
	<g>
		<path d="M365.525,184.475c-1.051-0.649-2.002-1.5-2.851-2.55c-0.851-1.05-1.552-2.25-2.1-3.6c-0.551-1.35-0.825-2.724-0.825-4.125
			v-31.35c0-1.8-0.427-3-1.275-3.6c-0.851-0.6-1.574-0.9-2.175-0.9H326v22.5h8.25v23.1c0,2.801,0.623,5.051,1.875,6.75
			c1.249,1.702,2.674,3.25,4.275,4.65c-1.5,1.401-2.902,2.977-4.2,4.725c-1.301,1.75-1.95,3.975-1.95,6.675v24.75H326V254h30.3
			c0.601,0,1.324-0.276,2.175-0.825c0.849-0.551,1.275-1.777,1.275-3.675v-33c0-3.199,0.975-5.798,2.925-7.8
			c1.95-2,3.976-3.249,6.075-3.75v-19.5C367.648,185.45,366.575,185.126,365.525,184.475z"/>
	</g>
</g>
<g>
	<g>
		<rect x="204" y="181" width="104" height="30"/>
	</g>
</g>
<g>
	<g>
		<rect x="204" y="121" width="84" height="30"/>
	</g>
</g>
<g>
	<g>
		<rect x="204" y="241" width="64" height="30"/>
	</g>
</g>
<g>
	<g>
		<path d="M301,386.002c0-2.807-0.271-5.552-0.766-8.218l15.228-8.791l-15-25.983l-15.249,8.804
			c-4.155-3.556-8.959-6.37-14.213-8.233V326h-30v17.58c-5.254,1.863-10.058,4.677-14.213,8.233l-15.249-8.804l-15,25.98
			l15.228,8.791c-0.495,2.668-0.766,5.412-0.766,8.22c0,2.808,0.271,5.552,0.766,8.218l-15.228,8.791l15,25.98l15.249-8.804
			c4.155,3.556,8.959,6.37,14.213,8.233V446h30v-17.58c5.254-1.863,10.058-4.677,14.213-8.233l15.249,8.804l15-25.98l-15.228-8.791
			C300.728,391.553,301,388.809,301,386.002z M256,401c-8.271,0-15-6.729-15-15s6.729-15,15-15s15,6.729,15,15S264.271,401,256,401z
			"/>
	</g>
</g>
<g>
</g>
<g>
</g>
<g>
</g>
<g>
</g>
<g>
</g>
<g>
</g>
<g>
</g>
<g>
</g>
<g>
</g>
<g>
</g>
<g>
</g>
<g>
</g>
<g>
</g>
<g>
</g>
<g>
</g>
</svg>
