<svg height="512pt" viewBox="0 -36 512 511" width="512pt" xmlns="http://www.w3.org/2000/svg"><path d="m493.304688.5h-474.609376c-10.308593 0-18.695312 8.386719-18.695312 18.695312v401.726563c0 10.308594 8.386719 18.695313 18.695312 18.695313h474.609376c10.308593 0 18.695312-8.386719 18.695312-18.695313v-401.726563c0-10.308593-8.386719-18.695312-18.695312-18.695312zm-11.304688 30v22.402344l-175.375.425781c-4.683594.011719-9.152344 1.777344-12.585938 4.976563l-24.671874 23.027343h-239.367188v-50.832031zm-452 379.117188v-298.289063h243.902344c4.703125 0 9.1875-1.765625 12.625-4.976563l24.683594-23.035156 170.792968-.417968v326.71875zm0 0"/><path d="m97.1875 59.207031c.089844.476563.210938.957031.359375 1.429688.140625.457031.3125.929687.492187 1.378906.1875.449219.398438.898437.628907 1.328125s.480469.851562.75 1.261719c.269531.410156.570312.808593.878906 1.179687.3125.378906.640625.75.992187 1.101563.339844.347656.707032.679687 1.089844.988281.378906.308594.777344.601562 1.1875.871094.402344.269531.832032.527344 1.261719.757812.429687.230469.878906.441406 1.328125.621094.449219.191406.910156.359375 1.382812.5.46875.140625.949219.261719 1.417969.359375.480469.101563.972657.171875 1.460938.21875.488281.050781.988281.070313 1.46875.070313.488281 0 .988281-.019532 1.480469-.070313.480468-.046875.96875-.117187 1.449218-.21875.480469-.097656.960938-.21875 1.429688-.359375.460937-.140625.933594-.308594 1.378906-.5.453125-.179688.902344-.390625 1.332031-.621094.429688-.230468.851563-.488281 1.261719-.757812.40625-.269532.808594-.5625 1.179688-.871094.390624-.308594.75-.640625 1.097656-.988281.351562-.351563.683594-.722657.992187-1.101563.308594-.371094.597657-.769531.878907-1.179687.261718-.410157.519531-.832031.75-1.261719.230468-.429688.441406-.878906.621093-1.328125.1875-.449219.359375-.921875.5-1.378906.140625-.472657.257813-.953125.359375-1.429688.101563-.480469.167969-.972656.21875-1.453125.050782-.488281.070313-.988281.070313-1.476562 0-.492188-.019531-.980469-.070313-1.472656-.050781-.488282-.117187-.980469-.21875-1.460938-.101562-.476562-.222656-.957031-.359375-1.417969-.140625-.46875-.3125-.929687-.5-1.378906-.179687-.460937-.390625-.902344-.621093-1.332031-.230469-.429688-.488282-.859375-.75-1.257813-.28125-.410156-.570313-.8125-.878907-1.191406-.3125-.378906-.640625-.75-.992187-1.089844-.347656-.351562-.707032-.679687-1.097656-.988281-.371094-.3125-.773438-.613281-1.179688-.882812-.410156-.269532-.832031-.519532-1.261719-.75-.429687-.230469-.878906-.4375-1.332031-.628907-.445312-.179687-.917969-.351562-1.378906-.488281-.46875-.152344-.949219-.269531-1.429688-.363281-.480468-.097657-.96875-.167969-1.449218-.21875-.980469-.097657-1.96875-.097657-2.949219 0-.488281.050781-.980469.121093-1.460938.21875-.46875.09375-.949219.210937-1.417969.363281-.472656.136719-.933593.308594-1.382812.488281-.449219.191407-.898438.398438-1.328125.628907-.429687.230468-.859375.480468-1.261719.75-.410156.269531-.808594.570312-1.1875.882812-.382812.308594-.75.636719-1.089844.988281-.351562.339844-.679687.710938-.992187 1.089844-.308594.378906-.609375.78125-.878906 1.191406-.269531.398438-.519531.828125-.75 1.257813-.230469.429687-.4375.871094-.628907 1.332031-.179687.449219-.351562.910156-.492187 1.378906-.148437.460938-.269531.941407-.359375 1.417969-.101562.480469-.167969.972656-.21875 1.460938-.050781.492187-.082031.980468-.082031 1.472656 0 .488281.03125.988281.082031 1.476562.050781.484375.121094.972656.21875 1.453125zm0 0"/><path d="m54.378906 67.875c.382813.3125.78125.601562 1.191406.871094.398438.269531.832032.53125 1.261719.761718.429688.226563.878907.4375 1.328125.617188.449219.191406.910156.359375 1.378906.5.472657.140625.941407.261719 1.421876.359375.480468.101563.96875.171875 1.460937.222656.488281.046875.976563.070313 1.46875.070313.488281 0 .988281-.023438 1.480469-.070313.480468-.050781.96875-.121093 1.449218-.222656.480469-.097656.960938-.21875 1.429688-.359375.460938-.140625.929688-.308594 1.378906-.5.449219-.179688.902344-.390625 1.332032-.617188.429687-.230468.851562-.492187 1.261718-.761718.40625-.269532.808594-.558594 1.179688-.871094.378906-.308594.75-.640625 1.097656-.988281.351562-.351563.679688-.71875.992188-1.101563.308593-.367187.597656-.769531.867187-1.179687.269531-.410157.53125-.828125.761719-1.257813.230468-.429687.4375-.882812.621094-1.332031.1875-.449219.359374-.917969.5-1.378906.136718-.46875.257812-.949219.359374-1.429688.097657-.480469.167969-.96875.21875-1.449219.050782-.492187.070313-.992187.070313-1.480468 0-.492188-.019531-.980469-.070313-1.472656-.050781-.488282-.121093-.976563-.21875-1.457032-.101562-.480468-.222656-.949218-.359374-1.421875-.140626-.46875-.3125-.929687-.5-1.378906-.183594-.460937-.390626-.898437-.621094-1.328125-.230469-.433594-.492188-.863281-.761719-1.261719-.269531-.410156-.558594-.808593-.867187-1.191406-.3125-.378906-.640626-.75-.992188-1.089844-.347656-.347656-.71875-.679687-1.097656-1-.371094-.296875-.773438-.597656-1.179688-.867187-.410156-.273438-.832031-.523438-1.261718-.75-.429688-.230469-.882813-.441406-1.332032-.632813-.449218-.179687-.917968-.347656-1.378906-.488281-.46875-.148438-.949219-.269531-1.429688-.359375-.480468-.101563-.96875-.171875-1.449218-.222656-.980469-.097657-1.972656-.097657-2.949219 0-.492187.050781-.980469.121093-1.460937.222656-.480469.089844-.949219.210937-1.421876.359375-.46875.140625-.929687.308594-1.378906.488281-.449218.191407-.898437.402344-1.328125.632813-.429687.226562-.859375.476562-1.261719.75-.410156.269531-.808593.570312-1.191406.867187-.378906.320313-.75.652344-1.089844 1-.347656.339844-.679687.710938-.988281 1.089844-.308593.382813-.609375.78125-.878906 1.191406-.269531.398438-.519531.828125-.75 1.261719-.230469.429688-.441406.867188-.632813 1.328125-.179687.449219-.347656.910156-.488281 1.378906-.148437.472657-.269531.941407-.359375 1.421875-.101562.480469-.167968.96875-.21875 1.457032-.050781.492187-.082031.980468-.082031 1.472656 0 3.949218 1.601563 7.808594 4.398437 10.609375.339844.347656.710938.679687 1.089844.988281zm0 0"/><path d="m146.1875 59.207031c.089844.476563.207031.957031.359375 1.429688.140625.457031.308594.929687.488281 1.378906.191406.449219.398438.898437.628906 1.328125.230469.429688.480469.851562.75 1.261719.273438.410156.570313.808593.882813 1.179687.308594.378906.640625.75.988281 1.101563.339844.347656.710938.679687 1.089844.988281.382812.308594.78125.601562 1.191406.871094.398438.269531.828125.527344 1.257813.757812.433593.230469.878906.441406 1.332031.621094.449219.191406.910156.359375 1.378906.5.472656.140625.949219.261719 1.417969.359375.480469.101563.972656.171875 1.460937.21875.492188.050781.992188.070313 1.472657.070313.488281 0 .988281-.019532 1.476562-.070313.492188-.046875.972657-.117187 1.460938-.21875.472656-.097656.949219-.21875 1.421875-.359375.46875-.140625.929687-.308594 1.378906-.5.449219-.179688.898438-.390625 1.328125-.621094.433594-.230468.859375-.488281 1.261719-.757812.410156-.269532.808594-.5625 1.191406-.871094.378906-.308594.75-.640625 1.089844-.988281.347656-.351563.679687-.722657.988281-1.101563.3125-.371094.601563-.769531.878906-1.179687.261719-.410157.523438-.832031.75-1.261719.230469-.429688.441407-.878906.621094-1.328125.191406-.449219.359375-.921875.5-1.378906.140625-.472657.257813-.953125.359375-1.429688.101562-.480469.171875-.972656.21875-1.453125.050781-.488281.070312-.988281.070312-1.476562 0-.492188-.019531-.980469-.070312-1.472656-.046875-.488282-.117188-.980469-.21875-1.460938-.101562-.476562-.21875-.949219-.359375-1.417969s-.308594-.929687-.5-1.378906c-.179687-.449219-.390625-.902344-.621094-1.332031-.226562-.429688-.488281-.859375-.75-1.257813-.277343-.410156-.566406-.8125-.878906-1.191406-.308594-.378906-.640625-.75-.988281-1.089844-.339844-.351562-.710938-.679687-1.089844-.988281-.382812-.3125-.78125-.613281-1.191406-.882812-.398438-.269532-.828125-.519532-1.261719-.75-.429687-.230469-.878906-.4375-1.328125-.628907-.449219-.179687-.910156-.351562-1.378906-.488281-.472656-.140625-.949219-.269531-1.421875-.363281-.488281-.097657-.96875-.167969-1.460938-.21875-.976562-.097657-1.96875-.097657-2.949219 0-.488281.050781-.976562.121093-1.460937.21875-.46875.09375-.945313.222656-1.417969.363281-.46875.136719-.929687.308594-1.378906.488281-.453125.191407-.898438.398438-1.332031.628907-.429688.230468-.859375.480468-1.257813.75-.410156.269531-.8125.570312-1.191406.882812-.378906.308594-.75.636719-1.089844.988281-.351562.339844-.679687.710938-.988281 1.089844-.3125.378906-.609375.78125-.882813 1.191406-.269531.398438-.519531.828125-.75 1.257813-.226562.429687-.4375.882812-.628906 1.332031-.179687.449219-.351562.910156-.488281 1.378906-.152344.46875-.269531.941407-.359375 1.417969-.101562.480469-.171875.972656-.222656 1.460938-.050782.492187-.078125.980468-.078125 1.472656 0 .488281.027343.988281.078125 1.476562.050781.484375.121094.972656.222656 1.453125zm0 0"/><path d="m193.472656 188.765625c-5.683594-6.023437-15.175781-6.304687-21.203125-.621094l-63.226562 59.613281c-3.125 2.953126-4.917969 7.117188-4.917969 11.417969.003906 4.300781 1.800781 8.460938 4.929688 11.410157l63.214843 59.605468c2.898438 2.730469 6.59375 4.085938 10.285157 4.085938 3.988281 0 7.964843-1.582032 10.917968-4.710938 5.683594-6.023437 5.402344-15.519531-.625-21.203125l-52.175781-49.195312 52.175781-49.195313c6.03125-5.683594 6.308594-15.179687.625-21.207031zm0 0"/><path d="m288.242188 185.355469c-7.570313-3.371094-16.433594.03125-19.804688 7.601562l-53.535156 120.21875c-3.371094 7.570313.03125 16.433594 7.601562 19.804688 1.980469.882812 4.054688 1.300781 6.09375 1.300781 5.742188 0 11.222656-3.316406 13.710938-8.902344l53.535156-120.21875c3.371094-7.570312-.035156-16.433594-7.601562-19.804687zm0 0"/><path d="m339.730469 188.144531c-6.027344-5.683593-15.519531-5.402343-21.203125.621094-5.683594 6.027344-5.402344 15.523437.625 21.203125l52.175781 49.199219-52.175781 49.195312c-6.027344 5.683594-6.308594 15.175781-.625 21.203125 2.953125 3.128906 6.929687 4.710938 10.917968 4.710938 3.6875 0 7.386719-1.355469 10.285157-4.085938l63.214843-59.605468c3.128907-2.949219 4.925782-7.109376 4.929688-11.410157 0-4.304687-1.792969-8.464843-4.929688-11.425781zm0 0"/></svg>